<?xml version="1.0" encoding="utf-8"?>
<!-- Generator: Adobe Illustrator 17.0.0, SVG Export Plug-In . SVG Version: 6.00 Build 0)  -->
<!DOCTYPE svg PUBLIC "-//W3C//DTD SVG 1.1//EN" "http://www.w3.org/Graphics/SVG/1.1/DTD/svg11.dtd">
<svg version="1.1" id="Layer_1" xmlns="http://www.w3.org/2000/svg" xmlns:xlink="http://www.w3.org/1999/xlink" x="0px" y="0px"
	 width="420.944px" height="297.64px" viewBox="0 0 420.944 297.64" enable-background="new 0 0 420.944 297.64"
	 xml:space="preserve">
<path fill="#1D1D1B" d="M161.988,138.913l5.645,37.879l0.004,0.008l0.52,3.482c0.29,2.865-0.218,4.692-3.304,7.231
	c-0.135,0.107-0.222,0.207-0.329,0.306l-6.077,5.061c-0.179,0.096-0.361,0.215-0.567,0.369c-3.232,2.591-5.025,2.828-8.73,1.289
	l-2.852-1.182c-4.137-1.713-4.474-3.622-5.006-6.636l-1.559-8.856c-0.92-5.197-0.302-4.963,3.586-3.451l0,0l7.632,2.966
	l-4.339-27.955l-44.397,50.716l-0.496,3.669c0,0.008-0.004,0.004-0.004,0.004c-0.452,3.339-1.746,2.725-5.625,1.015
	c-0.004,0-0.004,0-0.004,0l-5.513-2.479c-2.781-1.257-4.212-2.775-3.566-7.595l2.804-20.682L63.069,209.73c-0.004,0-0.004,0-0.004,0
	c-1.428,1.912-2.249,3.004-5.704,1.452c0,0,0,0-0.004,0l-8.488-3.815c-2.451-1.108-2.812-3.292-2.372-6.529l6.06-44.345
	l-8.972-4.042c-0.004,0-0.004,0-0.004-0.004c-2.336-1.051-1.983-2.609,0.31-4.475l7.389-6.156c2.511-2.045,4.553-2.705,7.334-1.447
	l7.512,3.375h0.004c3.233,1.5,3.693,3.055,3.257,6.275l-4.415,32.28l28.491-35.163l0.658-4.852c0.655-4.264,2.324-6.068,6.759-4.094
	l0.703,0.326c6.679,3.006,8.44,3.994,7.512,10.828c0,0,0,0,0,0.004l-4.288,31.664l33.699-46.547c3.55-4.917,6.307-6.274,9.896-5.581
	l0.678,0.135c0.742,0.143,1.432,0.282,2.066,0.413l5.41,1.035C158.938,130.941,161.184,133.527,161.988,138.913 M376.809,104.223
	c-5.637-4.911-5.682-4.943-15.279-4.046l-3.094,0.286c-0.611-0.432-1.223-0.805-1.824-1.103c-0.492-0.254-0.963-0.453-1.428-0.631
	c-0.15-0.06-0.283-0.123-0.441-0.183c-5.965-2.154-15.727-2.784-17.461,5.407c-0.305,1.451-0.193,2.606,0.25,3.633
	c0.146,0.346,0.334,0.675,0.564,1.004c0.754,1.066,1.916,2.031,3.379,3.117l2.543,1.817c0.035,0.028,0.07,0.051,0.107,0.079
	c2.697,1.94,4.617,2.535,6.592,2.535c-0.008,0.178-0.012,0.341-0.027,0.532c-0.1,1.047-0.357,7.607-4.152,18.801
	c-0.846,2.483-2.139,4.752-3.332,7.005c-1.207,2.225-2.559,4.399-4.236,6.037c-1.658,1.642-3.658,2.649-5.33,2.689
	c-1.68,0.095-2.949-0.774-3.555-2.257c-0.65-1.44-0.838-3.273-1.014-5.042c-0.254-2.38-0.17-4.732,0.014-6.767l4.605-31.053
	c0.004-0.004,0.004-0.02,0.004-0.028c0.848-5.712,0.162-7.37-4.271-9.663l-2.215-0.995l0.037-0.052l-2.127-0.96
	c-4.256-1.821-5.744-1.515-9.311,3.542l-0.348,0.496c-0.172,0.246-0.338,0.488-0.516,0.762l-0.02,0.023l-31.629,45.932l2.764-20.387
	c0.004-0.004,0.004-0.016,0.004-0.024c1.223-8.996,1.111-9.61-5.676-12.717c-6.789-3.097-7.98-4.125-8.705,1.278l-28.769,37.431
	l4.256-31.148v-0.008c0.758-5.538-4.094-7.624-9.682-10.139c-5.588-2.515-7.699,0.095-10.971,5.617
	c-0.004,0-0.004,0.004-0.004,0.004l-31.027,52.654l6.731-49.116c0.678-4.986-0.587-6.497-3.633-7.973l-4.966-2.257l89.162-15.724
	c7.828-1.451,8.156-2.982,9.361-5.228c1.209-2.229-1.15-3.879-4.979-6.544c-3.205-2.233-4.129-3.269-11.416-2.099l-171.577,30.26
	c-5.942,0.996-8.131,2.903-10.059,5.613l-0.012,0.012c-1.305,1.841,1.512,3.443,5.098,4.906l5.307,2.023
	c5.212,1.976,7.489,1.222,13.755,0.063l67.275-11.855l-8.5,62.194c0,0.008-0.004,0.008-0.004,0.016
	c-1.356,9.921-0.682,10.226,6.505,13.47c7.186,3.257,9.004,3.975,12.919-2.982c0.003-0.008,0.003-0.012,0.003-0.012l34.592-61.587
	l-6.545,47.879c-0.566,4.692,0.092,6.251,2.42,7.298c2.586,1.161,4.225,1.9,7.305,3.288c3.062,1.377,4.348,1.555,7.275-2.376
	l26.354-35.544l-2.728,20.143c-0.803,5.878,0.043,6.259,5.672,8.794c0.012,0.004,0.016,0.008,0.027,0.012l3.516,1.574
	c3.35,1.409,5.441,1.544,7.789-2.328l0,0l34.857-57.394l-1.104,8.099c-0.004,0.016-0.008,0.02-0.008,0.028
	c-1.086,8.08-2.656,15.422-0.773,24.058c0.516,2.355,1.232,4.268,2.008,5.83c0.059,0.119,0.123,0.237,0.178,0.349
	c0.08,0.155,0.16,0.302,0.234,0.452c0.932,1.738,2.154,3.494,3.781,5.117c2.883,2.942,7.262,5.244,11.783,5.589
	c4.514,0.349,8.812-0.821,12.59-2.63c3.791-1.832,7.168-4.375,9.897-7.397c2.748-3.011,4.752-6.517,6.172-10.091
	c0.709-1.781,1.328-3.57,1.828-5.351c0.246-0.89,0.492-1.781,0.691-2.665c0.102-0.465,0.205-0.834,0.297-1.373l0.217-1.135
	c0.604-3.26,1.051-6.553,1.162-9.785c0.123-2.689-0.027-5.379-0.451-8.08l5.754-1.246c5.685-1.229,6.074-1.388,6.848-2.689
	l0.27-0.448C379.426,107.031,379.137,106.253,376.809,104.223"/>
</svg>
